<?xml version="1.0" encoding="iso-8859-1"?>
<!-- Generator: Adobe Illustrator 19.0.0, SVG Export Plug-In . SVG Version: 6.00 Build 0)  -->
<svg version="1.1" id="Capa_1" xmlns="http://www.w3.org/2000/svg" xmlns:xlink="http://www.w3.org/1999/xlink" x="0px" y="0px"
	 viewBox="0 0 341.418 341.418" style="enable-background:new 0 0 341.418 341.418;" xml:space="preserve">
<circle style="fill:#FF6666;" cx="170.736" cy="79.472" r="33.2"/>
<path style="fill:#666666;" d="M232.336,130.672c-2.8,3.2-7.6,4-10.8,1.2c-3.2-2.8-4-7.6-1.2-10.8c19.6-24,19.2-58.8-0.8-82.4
	c-2.8-3.2-2.4-8,0.8-10.8s8-2.4,10.8,0.8l0,0C256.336,57.872,256.736,100.672,232.336,130.672z M89.936,146.272
	c2.8,3.2,2,8-1.2,10.8s-8,2-10.8-1.2c-36.4-44.8-35.6-109.2,2.4-153.2c2.8-3.2,7.6-3.6,10.8-0.8s3.6,7.6,0.8,10.8
	C58.736,51.072,57.936,107.472,89.936,146.272L89.936,146.272z M120.736,121.072c2.8,3.2,2,8-1.2,10.8s-8,2-10.8-1.2
	c-24.4-30-24-73.2,1.2-102.4c2.8-3.2,7.6-3.6,10.8-0.8c3.2,2.8,3.6,7.6,0.8,10.8l0,0C101.536,62.272,101.136,97.072,120.736,121.072
	L120.736,121.072z M119.936,203.872l-20.8,62.8h143.2l-20.8-62.8H119.936z M170.736,141.472h-30l-15.6,47.2h91.2l-15.6-47.2H170.736
	z M75.936,336.272c-1.2,4-5.6,6-9.6,4.8s-6-5.6-4.8-9.6l45.6-137.2v-0.4l20.8-62.4c1.2-3.2,4-5.2,7.2-5.2h70.8c3.2,0,6.4,2,7.2,5.2
	l20.8,62.4v0.4l46,137.2c1.2,4-0.8,8.4-4.8,9.6s-8.4-0.8-9.6-4.8l-18-54.4h-153.6L75.936,336.272z M263.136,155.872
	c-2.8,3.2-7.6,4-10.8,1.2c-3.2-2.8-4-7.6-1.2-10.8c32-39.2,31.2-95.6-1.6-133.6c-2.8-3.2-2.4-8,0.8-10.8c3.2-2.8,8-2.4,10.8,0.8l0,0
	C299.136,46.672,299.936,111.072,263.136,155.872L263.136,155.872z"/>
<g>
</g>
<g>
</g>
<g>
</g>
<g>
</g>
<g>
</g>
<g>
</g>
<g>
</g>
<g>
</g>
<g>
</g>
<g>
</g>
<g>
</g>
<g>
</g>
<g>
</g>
<g>
</g>
<g>
</g>
</svg>
