<?xml version="1.0" encoding="iso-8859-1"?>
<!-- Generator: Adobe Illustrator 19.0.0, SVG Export Plug-In . SVG Version: 6.00 Build 0)  -->
<svg version="1.1" id="Capa_1" xmlns="http://www.w3.org/2000/svg" xmlns:xlink="http://www.w3.org/1999/xlink" x="0px" y="0px"
	 viewBox="0 0 372.575 372.575" style="enable-background:new 0 0 372.575 372.575;" xml:space="preserve">
<g>
	<g>
		<path d="M132.208,59.889c3.026-3.225,2.865-8.294-0.36-11.32c-3.225-3.027-8.293-2.865-11.32,0.36
			c-23.631,25.13-23.758,64.189,0,89.2c3.027,3.225,8.095,3.387,11.32,0.36c3.225-3.026,3.387-8.095,0.36-11.32
			C114.478,108.246,114.478,78.811,132.208,59.889z"/>
	</g>
</g>
<g>
	<g>
		<path d="M103.328,37.968c3.026-3.225,2.865-8.293-0.36-11.32c-3.225-3.027-8.293-2.865-11.32,0.36
			c-35.441,37.547-35.742,95.937,0,133.2c3.027,3.225,8.095,3.386,11.32,0.36c3.225-3.027,3.387-8.095,0.36-11.32
			C74.034,117.939,74.034,69.278,103.328,37.968z"/>
	</g>
</g>
<g>
	<g>
		<path d="M74.288,13.488c3.027-3.225,2.865-8.293-0.36-11.32c-3.225-3.026-8.293-2.865-11.32,0.36
			c-47.827,51.117-47.827,130.563,0,181.68c1.535,1.747,3.754,2.74,6.08,2.72c4.416-0.145,7.879-3.842,7.734-8.257
			c-0.063-1.928-0.821-3.769-2.134-5.183C32.063,128.513,32.063,58.464,74.288,13.488z"/>
	</g>
</g>
<g>
	<g>
		<path d="M252.048,49.009c-3.026-3.225-8.095-3.387-11.32-0.36c-3.225,3.026-3.386,8.095-0.36,11.32
			c17.73,18.922,17.73,48.358,0,67.28c-2.736,3.172-2.561,7.917,0.4,10.88c3.12,3.102,8.16,3.102,11.28,0
			C275.479,113.042,275.479,74.095,252.048,49.009z"/>
	</g>
</g>
<g>
	<g>
		<path d="M280.928,27.009c-3.027-3.225-8.095-3.387-11.32-0.36c-3.225,3.026-3.387,8.095-0.36,11.32
			c29.294,31.31,29.294,79.97,0,111.28c-3.027,3.225-2.865,8.293,0.36,11.32c3.225,3.026,8.293,2.865,11.32-0.36
			C316.012,122.739,316.012,64.478,280.928,27.009z"/>
	</g>
</g>
<g>
	<g>
		<path d="M309.968,2.769c-3.026-3.225-8.095-3.387-11.32-0.36c-3.225,3.026-3.387,8.095-0.36,11.32
			c42.075,44.943,42.075,114.818,0,159.76c-3.026,3.225-2.865,8.293,0.36,11.32c3.225,3.026,8.294,2.865,11.32-0.36
			C357.794,133.331,357.794,53.886,309.968,2.769z"/>
	</g>
</g>
<g>
	<g>
		<path d="M286.928,362.129l-62.24-209.68c-1.026-3.53-4.327-5.906-8-5.76h-24.8v-13.12c22.096-4.418,36.426-25.912,32.008-48.008
			s-25.912-36.426-48.008-32.008c-22.096,4.418-36.426,25.912-32.008,48.008c3.23,16.152,15.856,28.778,32.008,32.008h0.4v13.2
			h-24.8c-3.673-0.146-6.974,2.23-8,5.76l-61.84,209.6c-1.259,4.242,1.158,8.701,5.4,9.96s8.701-1.158,9.96-5.4l24-81.76h126.24
			l24,81.76c1.259,4.33,5.79,6.819,10.12,5.56S288.187,366.458,286.928,362.129z M157.808,162.689h53.28l16,52.64h-85.28
			L157.808,162.689z M126.048,268.528l11.04-37.2h94.4l10.8,37.2H126.048z"/>
	</g>
</g>
<g>
</g>
<g>
</g>
<g>
</g>
<g>
</g>
<g>
</g>
<g>
</g>
<g>
</g>
<g>
</g>
<g>
</g>
<g>
</g>
<g>
</g>
<g>
</g>
<g>
</g>
<g>
</g>
<g>
</g>
</svg>
