<?xml version="1.0" encoding="iso-8859-1"?>
<!-- Generator: Adobe Illustrator 19.0.0, SVG Export Plug-In . SVG Version: 6.00 Build 0)  -->
<svg version="1.1" id="Layer_1" xmlns="http://www.w3.org/2000/svg" xmlns:xlink="http://www.w3.org/1999/xlink" x="0px" y="0px"
	 viewBox="0 0 512 512" style="enable-background:new 0 0 512 512;" xml:space="preserve">
<g>
	<polygon style="fill:#FFAD61;" points="256,492.601 10.199,401.903 10.199,110.097 256,200.794 	"/>
	<polygon style="fill:#FFAD61;" points="256,492.601 501.801,401.903 501.801,110.097 256,200.794 	"/>
	<polygon style="fill:#FFAD61;" points="501.801,110.097 256,200.794 10.199,110.097 256,19.4 	"/>
</g>
<g>
	<polygon style="fill:#FFE6B8;" points="186.645,305.889 76.494,265.245 76.494,134.477 186.645,175.121 	"/>
	<polygon style="fill:#FFE6B8;" points="296.797,134.477 186.645,175.121 76.494,134.477 186.645,93.833 	"/>
</g>
<g>
	<path style="fill:#4D3D36;" d="M457.473,363.799l-106.072,39.139c-5.285,1.95-7.988,7.815-6.038,13.1
		c1.521,4.12,5.42,6.671,9.57,6.671c1.172,0,2.365-0.204,3.53-0.633l106.072-39.139c5.285-1.95,7.988-7.815,6.038-13.1
		C468.622,364.552,462.758,361.849,457.473,363.799z"/>
	<path style="fill:#4D3D36;" d="M322.237,413.7l-4.492,1.657c-5.284,1.95-7.988,7.815-6.038,13.099c1.52,4.12,5.42,6.672,9.57,6.672
		c1.172,0,2.365-0.204,3.53-0.633l4.492-1.657c5.284-1.95,7.988-7.815,6.038-13.099C333.387,414.452,327.522,411.749,322.237,413.7z
		"/>
	<path style="fill:#4D3D36;" d="M457.473,322.238l-83.825,30.93c-5.285,1.95-7.988,7.815-6.038,13.1
		c1.521,4.12,5.42,6.671,9.57,6.671c1.172,0,2.365-0.204,3.53-0.633l83.825-30.93c5.285-1.95,7.988-7.815,6.038-13.1
		C468.622,322.991,462.758,320.29,457.473,322.238z"/>
	<path style="fill:#4D3D36;" d="M457.473,281.109l-83.825,30.93c-5.285,1.95-7.988,7.815-6.038,13.1
		c1.521,4.12,5.42,6.671,9.57,6.671c1.172,0,2.365-0.204,3.53-0.633l83.825-30.93c5.285-1.95,7.988-7.815,6.038-13.1
		C468.622,281.862,462.758,279.161,457.473,281.109z"/>
	<path style="fill:#4D3D36;" d="M505.332,100.528L259.531,9.832c-2.279-0.84-4.783-0.84-7.061,0L6.669,100.528l-0.002,0.008
		c-0.805,0.298-1.579,0.692-2.299,1.193C1.631,103.637,0,106.762,0,110.097v291.806c0,4.271,2.661,8.09,6.668,9.569l245.801,90.696
		c1.146,0.423,2.341,0.63,3.53,0.63c1.201,0,2.396-0.218,3.528-0.636l0.004,0.006l245.801-90.696
		c4.007-1.479,6.668-5.297,6.668-9.569V110.097C512,105.825,509.339,102.007,505.332,100.528z M86.693,149.193l89.753,33.118
		v108.943l-89.753-33.118V149.193z M186.645,164.249l-80.688-29.772l80.688-29.773l80.688,29.772L186.645,164.249z M256,30.273
		l216.337,79.825L256,189.922l-40.001-14.76l84.329-31.117c4.007-1.479,6.668-5.297,6.668-9.569c0-4.271-2.661-8.09-6.668-9.569
		L190.176,84.263c-2.278-0.84-4.782-0.84-7.062,0L76.383,123.646l-36.72-13.55L256,30.273z M20.398,124.732l45.896,16.936v123.578
		c0,4.271,2.661,8.09,6.668,9.569l110.151,40.645c1.146,0.423,2.341,0.63,3.53,0.63c2.058,0,4.098-0.623,5.833-1.832
		c2.736-1.907,4.367-5.032,4.367-8.367V189.838l48.956,18.064v270.063L20.398,394.795V124.732z M266.199,477.965V207.902
		l225.402-83.17v270.064L266.199,477.965z"/>
</g>
<g>
</g>
<g>
</g>
<g>
</g>
<g>
</g>
<g>
</g>
<g>
</g>
<g>
</g>
<g>
</g>
<g>
</g>
<g>
</g>
<g>
</g>
<g>
</g>
<g>
</g>
<g>
</g>
<g>
</g>
</svg>
