<?xml version="1.0" encoding="iso-8859-1"?>
<!-- Generator: Adobe Illustrator 19.0.0, SVG Export Plug-In . SVG Version: 6.00 Build 0)  -->
<svg version="1.1" id="Capa_1" xmlns="http://www.w3.org/2000/svg" xmlns:xlink="http://www.w3.org/1999/xlink" x="0px" y="0px"
	 viewBox="0 0 512 512" style="enable-background:new 0 0 512 512;" xml:space="preserve">
<path style="fill:#FFFFFF;" d="M502,462V129.667C502,104.446,481.554,84,456.333,84H55.667C30.446,84,10,104.446,10,129.667V462
	c0,11.046,8.954,20,20,20h452C493.046,482,502,473.046,502,462z"/>
<path style="fill:#FF5A5A;" d="M456.333,84H55.667C30.446,84,10,104.446,10,129.667V196h392.463H502v-66.333
	C502,104.446,481.555,84,456.333,84z"/>
<path style="fill:#F5C86E;" d="M96,312L96,312c-17.673,0-32-14.327-32-32l0,0c0-17.673,14.327-32,32-32l0,0
	c17.673,0,32,14.327,32,32l0,0C128,297.673,113.673,312,96,312z"/>
<path style="fill:#A5DC69;" d="M416,312L416,312c-17.673,0-32-14.327-32-32l0,0c0-17.673,14.327-32,32-32l0,0
	c17.673,0,32,14.327,32,32l0,0C448,297.673,433.673,312,416,312z"/>
<path style="fill:#F5C86E;" d="M309.333,312L309.333,312c-17.673,0-32-14.327-32-32l0,0c0-17.673,14.327-32,32-32l0,0
	c17.673,0,32,14.327,32,32l0,0C341.333,297.673,327.007,312,309.333,312z"/>
<path style="fill:#FFFFFF;" d="M202.667,312L202.667,312c-17.673,0-32-14.327-32-32l0,0c0-17.673,14.327-32,32-32l0,0
	c17.673,0,32,14.327,32,32l0,0C234.667,297.673,220.34,312,202.667,312z"/>
<g>
	<path style="fill:#F5C86E;" d="M96,434L96,434c-17.673,0-32-14.327-32-32l0,0c0-17.673,14.327-32,32-32l0,0
		c17.673,0,32,14.327,32,32l0,0C128,419.673,113.673,434,96,434z"/>
	<path style="fill:#F5C86E;" d="M309.333,434L309.333,434c-17.673,0-32-14.327-32-32l0,0c0-17.673,14.327-32,32-32l0,0
		c17.673,0,32,14.327,32,32l0,0C341.333,419.673,327.007,434,309.333,434z"/>
</g>
<path style="fill:#A5DC69;" d="M416,434L416,434c-17.673,0-32-14.327-32-32l0,0c0-17.673,14.327-32,32-32l0,0
	c17.673,0,32,14.327,32,32l0,0C448,419.673,433.673,434,416,434z"/>
<g>
	<path style="fill:#F5C86E;" d="M202.667,434L202.667,434c-17.673,0-32-14.327-32-32l0,0c0-17.673,14.327-32,32-32l0,0
		c17.673,0,32,14.327,32,32l0,0C234.667,419.673,220.34,434,202.667,434z"/>
	<path style="fill:#F5C86E;" d="M202.667,312L202.667,312c-17.673,0-32-14.327-32-32l0,0c0-17.673,14.327-32,32-32l0,0
		c17.673,0,32,14.327,32,32l0,0C234.667,297.673,220.34,312,202.667,312z"/>
</g>
<path d="M465.399,203.07c1.86-1.86,2.931-4.44,2.931-7.07s-1.07-5.21-2.931-7.07c-1.859-1.86-4.43-2.93-7.069-2.93
	c-2.63,0-5.21,1.07-7.07,2.93c-1.86,1.86-2.93,4.44-2.93,7.07s1.069,5.21,2.93,7.07s4.44,2.93,7.07,2.93
	C460.97,206,463.54,204.93,465.399,203.07z"/>
<path d="M456.333,74h-11.452c1.77-1.804,2.865-4.273,2.865-7V54c0-18.748-15.252-34-34-34s-34,15.252-34,34v20h-92.738
	c1.77-1.804,2.865-4.273,2.865-7V54c0-18.748-15.252-34-34-34s-34,15.252-34,34v20h-92.738c1.77-1.804,2.865-4.273,2.865-7V54
	c0-18.748-15.252-34-34-34S64,35.252,64,54v20h-8.333C24.972,74,0,98.972,0,129.667V462c0,16.542,13.458,30,30,30h172.667
	c5.522,0,10-4.477,10-10s-4.478-10-10-10H30c-5.514,0-10-4.486-10-10V206h389.34c5.522,0,10-4.477,10-10s-4.478-10-10-10H20v-56.333
	C20,110,36,94,55.667,94H64v24.168c0,18.748,15.252,34,34,34s34-15.252,34-34c0-5.523-4.478-10-10-10s-10,4.477-10,10
	c0,7.72-6.28,14-14,14s-14-6.28-14-14V94h137.873v24.168c0,18.748,15.252,34,34,34s34-15.252,34-34c0-5.523-4.478-10-10-10
	s-10,4.477-10,10c0,7.72-6.28,14-14,14s-14-6.28-14-14V94h137.873v24.168c0,18.748,15.252,34,34,34s34-15.252,34-34
	c0-5.523-4.478-10-10-10s-10,4.477-10,10c0,7.72-6.28,14-14,14s-14-6.28-14-14V94h56.587C476,94,492,110,492,129.667V462
	c0,5.514-4.486,10-10,10H309.333c-5.522,0-10,4.477-10,10s4.478,10,10,10H482c16.542,0,30-13.458,30-30V129.667
	C512,98.972,487.028,74,456.333,74z M84,54c0-7.72,6.28-14,14-14s14,6.28,14,14v13c0,2.727,1.095,5.196,2.865,7H84V54z M241.873,54
	c0-7.72,6.28-14,14-14c7.72,0,14,6.28,14,14v13c0,2.727,1.095,5.196,2.865,7h-30.865L241.873,54L241.873,54z M399.746,54
	c0-7.72,6.28-14,14-14s14,6.28,14,14v13c0,2.727,1.095,5.196,2.865,7h-30.865V54z"/>
<path d="M96,238c-23.159,0-42,18.841-42,42s18.841,42,42,42s42-18.841,42-42S119.159,238,96,238z M96,302c-12.131,0-22-9.869-22-22
	s9.869-22,22-22s22,9.869,22,22S108.131,302,96,302z"/>
<path d="M416,238c-23.159,0-42,18.841-42,42s18.841,42,42,42s42-18.841,42-42S439.159,238,416,238z M416,302
	c-12.131,0-22-9.869-22-22s9.869-22,22-22s22,9.869,22,22S428.131,302,416,302z"/>
<path d="M309.333,322c23.159,0,42-18.841,42-42s-18.841-42-42-42s-42,18.841-42,42S286.174,322,309.333,322z M309.333,258
	c12.131,0,22,9.869,22,22s-9.869,22-22,22s-22-9.869-22-22S297.202,258,309.333,258z"/>
<path d="M202.667,238c-23.159,0-42,18.841-42,42s18.841,42,42,42s42-18.841,42-42S225.826,238,202.667,238z M202.667,302
	c-12.131,0-22-9.869-22-22s9.869-22,22-22s22,9.869,22,22S214.798,302,202.667,302z"/>
<path d="M96,360c-23.159,0-42,18.841-42,42s18.841,42,42,42s42-18.841,42-42S119.159,360,96,360z M96,424c-12.131,0-22-9.869-22-22
	s9.869-22,22-22s22,9.869,22,22S108.131,424,96,424z"/>
<path d="M351.333,402c0-23.159-18.841-42-42-42s-42,18.841-42,42s18.841,42,42,42S351.333,425.159,351.333,402z M287.333,402
	c0-12.131,9.869-22,22-22s22,9.869,22,22s-9.869,22-22,22S287.333,414.131,287.333,402z"/>
<path d="M416,444c23.159,0,42-18.841,42-42s-18.841-42-42-42s-42,18.841-42,42S392.841,444,416,444z M416,380
	c12.131,0,22,9.869,22,22s-9.869,22-22,22s-22-9.869-22-22S403.869,380,416,380z"/>
<path d="M202.667,360c-23.159,0-42,18.841-42,42s18.841,42,42,42s42-18.841,42-42S225.826,360,202.667,360z M202.667,424
	c-12.131,0-22-9.869-22-22s9.869-22,22-22s22,9.869,22,22S214.798,424,202.667,424z"/>
<path d="M256,472c-2.641,0-5.21,1.07-7.07,2.93c-1.87,1.86-2.93,4.44-2.93,7.07s1.06,5.21,2.93,7.07c1.86,1.86,4.43,2.93,7.07,2.93
	c2.63,0,5.21-1.07,7.069-2.93c1.86-1.86,2.931-4.44,2.931-7.07s-1.07-5.21-2.931-7.07C261.21,473.07,258.63,472,256,472z"/>
<g>
</g>
<g>
</g>
<g>
</g>
<g>
</g>
<g>
</g>
<g>
</g>
<g>
</g>
<g>
</g>
<g>
</g>
<g>
</g>
<g>
</g>
<g>
</g>
<g>
</g>
<g>
</g>
<g>
</g>
</svg>
