<?xml version="1.0" encoding="iso-8859-1"?>
<!-- Generator: Adobe Illustrator 19.0.0, SVG Export Plug-In . SVG Version: 6.00 Build 0)  -->
<svg version="1.1" id="Layer_1" xmlns="http://www.w3.org/2000/svg" xmlns:xlink="http://www.w3.org/1999/xlink" x="0px" y="0px"
	 viewBox="0 0 512 512" style="enable-background:new 0 0 512 512;" xml:space="preserve">
<g>
	<g>
		<path d="M378.435,33.391c-41.655,0-78.895,19.546-107.697,56.524c-5.791,7.435-10.682,14.864-14.738,21.751
			c-4.056-6.888-8.947-14.316-14.738-21.751C212.46,52.937,175.22,33.391,133.565,33.391C56.028,33.391,0,97.277,0,175.557
			c0,49.694,25.371,92.107,58.22,129.938c35.093,40.416,84.726,82.429,142.195,131.076c14.418,12.205,29.326,24.825,44.72,38.018
			c3.127,2.68,6.995,4.019,10.866,4.019c3.87,0,7.739-1.34,10.866-4.019c15.393-13.194,30.301-25.814,44.72-38.018
			c57.47-48.648,107.102-90.661,142.195-131.076C486.629,267.664,512,225.251,512,175.557C512,97.231,455.924,33.391,378.435,33.391
			z M428.567,283.602c-33.411,38.479-82.137,79.724-138.556,127.482c-11.046,9.35-22.378,18.943-34.011,28.863
			c-11.634-9.921-22.965-19.514-34.011-28.863c-56.419-47.758-105.145-89.003-138.556-127.482c-3.203-3.69-6.241-7.323-9.119-10.907
			h114.904c6.324,0,12.104-3.573,14.934-9.229l18.458-36.916l51.849,103.699c2.829,5.656,8.609,9.229,14.934,9.229
			s12.104-3.573,14.934-9.229l28.777-57.553h104.585C434.808,276.28,431.771,279.913,428.567,283.602z M322.783,239.304
			c-6.324,0-12.104,3.573-14.934,9.229l-18.458,36.916l-51.849-103.699c-2.829-5.656-8.609-9.229-14.934-9.229
			s-12.104,3.573-14.934,9.229l-28.777,57.553H51.387c-12.269-21.89-17.996-42.534-17.996-63.747
			c0-62.011,43.065-108.774,100.174-108.774c31.144,0,58.322,14.44,80.78,42.919c17.694,22.438,25.697,45.493,25.837,45.901
			c2.286,6.772,8.637,11.321,15.787,11.337c0.012,0,0.023,0,0.037,0c7.146,0,13.508-4.566,15.811-11.333
			c0.079-0.232,8.075-23.378,25.838-45.905c22.457-28.479,49.635-42.919,80.779-42.919c57.109,0,100.174,46.763,100.174,108.774
			c0,21.214-5.727,41.857-17.996,63.747H322.783z"/>
	</g>
</g>
<g>
</g>
<g>
</g>
<g>
</g>
<g>
</g>
<g>
</g>
<g>
</g>
<g>
</g>
<g>
</g>
<g>
</g>
<g>
</g>
<g>
</g>
<g>
</g>
<g>
</g>
<g>
</g>
<g>
</g>
</svg>
