<?xml version="1.0" encoding="iso-8859-1"?>
<!-- Generator: Adobe Illustrator 19.0.0, SVG Export Plug-In . SVG Version: 6.00 Build 0)  -->
<svg version="1.1" id="Capa_1" xmlns="http://www.w3.org/2000/svg" xmlns:xlink="http://www.w3.org/1999/xlink" x="0px" y="0px"
	 viewBox="0 0 197.973 197.973" style="enable-background:new 0 0 197.973 197.973;" xml:space="preserve">
<path d="M119.467,197.973H3.413c-1.886,0-3.413-1.527-3.413-3.413V78.507c0-1.886,1.527-3.413,3.413-3.413h116.053
	c1.886,0,3.413,1.527,3.413,3.413V194.56C122.88,196.446,121.353,197.973,119.467,197.973z M6.827,191.147h109.227V81.92H6.827
	V191.147z"/>
<path d="M194.56,122.88h-6.827c-1.886,0-3.413-1.527-3.413-3.413c0-1.886,1.527-3.413,3.413-3.413h3.413v-3.413
	c0-1.886,1.527-3.413,3.413-3.413c1.886,0,3.413,1.527,3.413,3.413v6.827C197.973,121.353,196.446,122.88,194.56,122.88z"/>
<path d="M178.423,122.88h-9.31c-1.886,0-3.413-1.527-3.413-3.413c0-1.886,1.527-3.413,3.413-3.413h9.31
	c1.886,0,3.413,1.527,3.413,3.413C181.837,121.353,180.309,122.88,178.423,122.88z M159.807,122.88h-9.31
	c-1.886,0-3.413-1.527-3.413-3.413c0-1.886,1.527-3.413,3.413-3.413h9.31c1.886,0,3.413,1.527,3.413,3.413
	C163.22,121.353,161.693,122.88,159.807,122.88z"/>
<path d="M141.187,122.88h-9.31c-1.886,0-3.413-1.527-3.413-3.413c0-1.886,1.527-3.413,3.413-3.413h9.31
	c1.886,0,3.413,1.527,3.413,3.413C144.601,121.353,143.073,122.88,141.187,122.88z M122.569,122.88h-9.31
	c-1.886,0-3.413-1.527-3.413-3.413c0-1.886,1.527-3.413,3.413-3.413h9.31c1.886,0,3.413,1.527,3.413,3.413
	C125.983,121.353,124.457,122.88,122.569,122.88z M103.95,122.88h-9.31c-1.886,0-3.413-1.527-3.413-3.413
	c0-1.886,1.527-3.413,3.413-3.413h9.31c1.886,0,3.413,1.527,3.413,3.413C107.363,121.353,105.837,122.88,103.95,122.88z"/>
<path d="M85.333,122.88h-6.827c-1.886,0-3.413-1.527-3.413-3.413v-6.827c0-1.886,1.527-3.413,3.413-3.413s3.413,1.527,3.413,3.413
	v3.413h3.413c1.886,0,3.413,1.527,3.413,3.413C88.747,121.353,87.219,122.88,85.333,122.88z"/>
<path d="M78.507,106.743c-1.886,0-3.413-1.527-3.413-3.413v-9.31c0-1.886,1.527-3.413,3.413-3.413s3.413,1.527,3.413,3.413v9.31
	C81.92,105.216,80.393,106.743,78.507,106.743z M78.507,88.127c-1.886,0-3.413-1.527-3.413-3.413v-9.31
	c0-1.886,1.527-3.413,3.413-3.413s3.413,1.527,3.413,3.413v9.31C81.92,86.6,80.393,88.127,78.507,88.127z"/>
<path d="M78.507,69.507c-1.886,0-3.413-1.527-3.413-3.413v-9.31c0-1.886,1.527-3.413,3.413-3.413s3.413,1.527,3.413,3.413v9.31
	C81.92,67.98,80.393,69.507,78.507,69.507z M78.507,50.889c-1.886,0-3.413-1.527-3.413-3.413v-9.31c0-1.886,1.527-3.413,3.413-3.413
	s3.413,1.527,3.413,3.413v9.31C81.92,49.364,80.393,50.889,78.507,50.889z M78.507,32.27c-1.886,0-3.413-1.527-3.413-3.413v-9.31
	c0-1.886,1.527-3.413,3.413-3.413s3.413,1.527,3.413,3.413v9.31C81.92,30.744,80.393,32.27,78.507,32.27z"/>
<path d="M78.507,13.653c-1.886,0-3.413-1.527-3.413-3.413V3.413C75.093,1.527,76.621,0,78.507,0h6.827
	c1.886,0,3.413,1.527,3.413,3.413s-1.527,3.413-3.413,3.413H81.92v3.413C81.92,12.126,80.393,13.653,78.507,13.653z"/>
<path d="M122.569,6.827h-9.31c-1.886,0-3.413-1.527-3.413-3.413S111.374,0,113.26,0h9.31c1.886,0,3.413,1.527,3.413,3.413
	S124.457,6.827,122.569,6.827z M103.953,6.827h-9.31c-1.886,0-3.413-1.527-3.413-3.413S92.757,0,94.643,0h9.31
	c1.886,0,3.413,1.527,3.413,3.413S105.841,6.827,103.953,6.827z"/>
<path d="M178.427,6.827h-9.31c-1.886,0-3.413-1.527-3.413-3.413S167.231,0,169.117,0h9.31c1.886,0,3.413,1.527,3.413,3.413
	S180.313,6.827,178.427,6.827z M159.807,6.827h-9.31c-1.886,0-3.413-1.527-3.413-3.413S148.611,0,150.497,0h9.31
	c1.886,0,3.413,1.527,3.413,3.413S161.693,6.827,159.807,6.827z M141.191,6.827h-9.31c-1.886,0-3.413-1.527-3.413-3.413
	S129.995,0,131.881,0h9.31c1.886,0,3.413,1.527,3.413,3.413S143.077,6.827,141.191,6.827z"/>
<path d="M194.56,13.653c-1.886,0-3.413-1.527-3.413-3.413V6.827h-3.413c-1.886,0-3.413-1.527-3.413-3.413S185.847,0,187.733,0h6.827
	c1.886,0,3.413,1.527,3.413,3.413v6.827C197.973,12.126,196.446,13.653,194.56,13.653z"/>
<path d="M194.56,50.889c-1.886,0-3.413-1.527-3.413-3.413v-9.31c0-1.886,1.527-3.413,3.413-3.413c1.886,0,3.413,1.527,3.413,3.413
	v9.31C197.973,49.364,196.446,50.889,194.56,50.889z M194.56,32.273c-1.886,0-3.413-1.527-3.413-3.413v-9.31
	c0-1.886,1.527-3.413,3.413-3.413c1.886,0,3.413,1.527,3.413,3.413v9.31C197.973,30.747,196.446,32.273,194.56,32.273z"/>
<path d="M194.56,106.747c-1.886,0-3.413-1.527-3.413-3.413v-9.31c0-1.886,1.527-3.413,3.413-3.413c1.886,0,3.413,1.527,3.413,3.413
	v9.31C197.973,105.219,196.446,106.747,194.56,106.747z M194.56,88.127c-1.886,0-3.413-1.527-3.413-3.413v-9.31
	c0-1.886,1.527-3.413,3.413-3.413c1.886,0,3.413,1.527,3.413,3.413v9.31C197.973,86.6,196.446,88.127,194.56,88.127z M194.56,69.511
	c-1.886,0-3.413-1.527-3.413-3.413v-9.31c0-1.886,1.527-3.413,3.413-3.413c1.886,0,3.413,1.527,3.413,3.413v9.31
	C197.973,67.983,196.446,69.511,194.56,69.511z"/>
<g>
</g>
<g>
</g>
<g>
</g>
<g>
</g>
<g>
</g>
<g>
</g>
<g>
</g>
<g>
</g>
<g>
</g>
<g>
</g>
<g>
</g>
<g>
</g>
<g>
</g>
<g>
</g>
<g>
</g>
</svg>
