<?xml version="1.0" encoding="iso-8859-1"?>
<!-- Generator: Adobe Illustrator 16.0.0, SVG Export Plug-In . SVG Version: 6.00 Build 0)  -->
<!DOCTYPE svg PUBLIC "-//W3C//DTD SVG 1.1//EN" "http://www.w3.org/Graphics/SVG/1.1/DTD/svg11.dtd">
<svg version="1.1" id="Capa_1" xmlns="http://www.w3.org/2000/svg" xmlns:xlink="http://www.w3.org/1999/xlink" x="0px" y="0px"
	 width="439.875px" height="439.875px" viewBox="0 0 439.875 439.875" style="enable-background:new 0 0 439.875 439.875;"
	 xml:space="preserve">
<g>
	<g>
		<polygon points="248.625,153 219.938,202.725 191.25,153 172.125,153 210.375,219.938 172.125,286.875 191.25,286.875 
			219.938,237.15 248.625,286.875 267.75,286.875 229.5,219.938 267.75,153 		"/>
		<polygon points="57.375,153 57.375,286.875 76.5,286.875 153,286.875 153,267.75 76.5,267.75 76.5,229.5 133.875,229.5 
			133.875,210.375 76.5,210.375 76.5,172.125 153,172.125 153,153 76.5,153 		"/>
		<polygon points="286.875,153 286.875,286.875 306,286.875 382.5,286.875 382.5,267.75 306,267.75 306,229.5 363.375,229.5 
			363.375,210.375 306,210.375 306,172.125 382.5,172.125 382.5,153 306,153 		"/>
		<path d="M382.5,95.625H57.375C24.862,95.625,0,120.487,0,153v133.875c0,32.513,24.862,57.375,57.375,57.375H382.5
			c32.513,0,57.375-24.862,57.375-57.375V153C439.875,120.487,415.013,95.625,382.5,95.625z M420.75,286.875
			c0,21.037-17.213,38.25-38.25,38.25H57.375c-21.038,0-38.25-17.213-38.25-38.25V153c0-21.038,17.212-38.25,38.25-38.25H382.5
			c21.037,0,38.25,17.212,38.25,38.25V286.875z"/>
	</g>
</g>
<g>
</g>
<g>
</g>
<g>
</g>
<g>
</g>
<g>
</g>
<g>
</g>
<g>
</g>
<g>
</g>
<g>
</g>
<g>
</g>
<g>
</g>
<g>
</g>
<g>
</g>
<g>
</g>
<g>
</g>
</svg>
