<?xml version="1.0" encoding="iso-8859-1"?>
<!-- Generator: Adobe Illustrator 19.0.0, SVG Export Plug-In . SVG Version: 6.00 Build 0)  -->
<svg version="1.1" id="Capa_1" xmlns="http://www.w3.org/2000/svg" xmlns:xlink="http://www.w3.org/1999/xlink" x="0px" y="0px"
	 viewBox="0 0 512.03 512.03" style="enable-background:new 0 0 512.03 512.03;" xml:space="preserve">
<path style="fill:#0378A3;" d="M406.062,238.36V70.639c0-9.754-7.901-17.655-17.655-17.655H17.655C7.901,52.984,0,60.885,0,70.639
	v423.717c0,9.754,7.901,17.655,17.655,17.655h370.752c9.754,0,17.655-7.901,17.655-17.655V238.36z"/>
<path style="fill:#F2F2F2;" d="M317.788,88.294h52.965V273.67v141.239v61.792H308.96H185.376H35.31V88.294h52.965L317.788,88.294z"
	/>
<path style="fill:#E2C675;" d="M150.066,31.251V0.02h105.929v31.231h26.482v74.698H123.584V31.251L150.066,31.251z"/>
<path style="fill:#ED1C24;" d="M176.549,141.258h52.965v35.31h-52.965V141.258z"/>
<path style="fill:#F8CF26;" d="M132.412,397.254h52.965v35.31h-52.965V397.254z"/>
<path style="fill:#0071BC;" d="M176.549,273.67h52.965v35.31h-52.965V273.67z"/>
<path style="fill:#2E3192;" d="M264.823,273.67h52.965v35.31h-52.965V273.67z"/>
<path style="fill:#29ABE2;" d="M88.274,273.67h52.965v35.31H88.274V273.67z"/>
<g>
	<path style="fill:#0378A3;" d="M291.305,220.705h-79.447v-8.827c0-4.873-3.955-8.827-8.827-8.827s-8.827,3.955-8.827,8.827v8.827
		h-79.447c-4.873,0-8.827,3.955-8.827,8.827v8.827c0,4.873,3.955,8.827,8.827,8.827c4.873,0,8.827-3.955,8.827-8.827h70.619
		c0,4.873,3.955,8.827,8.827,8.827s8.827-3.955,8.827-8.827h70.619c0,4.873,3.955,8.827,8.827,8.827
		c4.873,0,8.827-3.955,8.827-8.827v-8.827C300.133,224.651,296.178,220.705,291.305,220.705z"/>
	<path style="fill:#0378A3;" d="M158.894,370.772c-4.873,0-8.827-3.955-8.827-8.827v-8.827c0-4.873,3.955-8.827,8.827-8.827h123.584
		c0-4.873,3.955-8.827,8.827-8.827c4.873,0,8.827,3.955,8.827,8.827v8.827c0,4.873-3.955,8.827-8.827,8.827H167.721
		C167.721,366.817,163.767,370.772,158.894,370.772z"/>
</g>
<path style="fill:#FBB03B;" d="M450.227,291.332L282.508,459.051l-26.484-26.484l167.719-167.719L450.227,291.332z"/>
<path id="SVGCleanerId_0" style="fill:#B3B3B3;" d="M512.03,229.523l-26.484,26.484l-26.484-26.484l26.484-26.484L512.03,229.523z"
	/>
<g>
	<path id="SVGCleanerId_0_1_" style="fill:#B3B3B3;" d="M512.03,229.523l-26.484,26.484l-26.484-26.484l26.484-26.484
		L512.03,229.523z"/>
</g>
<path style="fill:#29485A;" d="M485.547,256l-35.31,35.31l-26.484-26.484l35.31-35.31L485.547,256z"/>
<path style="fill:#333333;" d="M203.031,512.011l18.617-12.411l-6.206-6.206L203.031,512.011z"/>
<path style="fill:#C69C6D;" d="M255.996,432.564l-40.553,60.83l6.206,6.206l60.83-40.553L255.996,432.564z"/>
<g>
</g>
<g>
</g>
<g>
</g>
<g>
</g>
<g>
</g>
<g>
</g>
<g>
</g>
<g>
</g>
<g>
</g>
<g>
</g>
<g>
</g>
<g>
</g>
<g>
</g>
<g>
</g>
<g>
</g>
</svg>
