<?xml version="1.0" encoding="iso-8859-1"?>
<!-- Generator: Adobe Illustrator 16.0.0, SVG Export Plug-In . SVG Version: 6.00 Build 0)  -->
<!DOCTYPE svg PUBLIC "-//W3C//DTD SVG 1.1//EN" "http://www.w3.org/Graphics/SVG/1.1/DTD/svg11.dtd">
<svg version="1.1" id="Capa_1" xmlns="http://www.w3.org/2000/svg" xmlns:xlink="http://www.w3.org/1999/xlink" x="0px" y="0px"
	 width="249.829px" height="249.829px" viewBox="0 0 249.829 249.829" style="enable-background:new 0 0 249.829 249.829;"
	 xml:space="preserve">
<g>
	<path d="M86.093,163.744h77.646V86.087H86.093V163.744z M152.989,96.838v56.155H96.843V96.838H152.989z"/>
	<path d="M225.642,152.993h-24.273V96.838h24.273c13.332,0,24.188-10.854,24.188-24.189c0-13.342-10.855-24.189-24.188-24.189
		h-24.273V24.194c0-13.335-10.855-24.189-24.19-24.189c-13.343,0-24.188,10.854-24.188,24.189V48.46H96.843V24.194
		c0-13.335-10.853-24.189-24.189-24.189c-13.341,0-24.189,10.854-24.189,24.189V48.46H24.189C10.853,48.46,0,59.308,0,72.649
		c0,13.335,10.853,24.189,24.189,24.189h24.276v56.155H24.189C10.853,152.993,0,163.851,0,177.184s10.853,24.188,24.189,24.188
		h24.276v24.265c0,13.343,10.848,24.188,24.189,24.188c13.336,0,24.189-10.845,24.189-24.188v-24.265h56.146v24.265
		c0,13.343,10.855,24.188,24.188,24.188c13.34,0,24.19-10.845,24.19-24.188v-24.265h24.273c13.338,0,24.188-10.855,24.188-24.188
		S238.979,152.993,225.642,152.993z M225.642,190.622h-35.024v35.015c0,7.411-6.027,13.437-13.439,13.437
		c-7.417,0-13.438-6.025-13.438-13.437v-35.015H86.093v35.015c0,7.411-6.031,13.437-13.439,13.437
		c-7.407,0-13.438-6.025-13.438-13.437v-35.015H24.189c-7.407,0-13.438-6.027-13.438-13.438c0-7.412,6.031-13.439,13.438-13.439
		h35.027V86.087H24.189c-7.407,0-13.438-6.031-13.438-13.438c0-7.407,6.031-13.439,13.438-13.439h35.027V24.194
		c0-7.407,6.031-13.438,13.438-13.438c7.408,0,13.439,6.031,13.439,13.438V59.21h77.646V24.194c0-7.407,6.026-13.438,13.438-13.438
		s13.439,6.031,13.439,13.438V59.21h35.024c7.417,0,13.438,6.032,13.438,13.439c0,7.407-6.021,13.438-13.438,13.438h-35.024v77.657
		h35.024c7.417,0,13.438,6.027,13.438,13.439C239.08,184.595,233.053,190.622,225.642,190.622z"/>
</g>
<g>
</g>
<g>
</g>
<g>
</g>
<g>
</g>
<g>
</g>
<g>
</g>
<g>
</g>
<g>
</g>
<g>
</g>
<g>
</g>
<g>
</g>
<g>
</g>
<g>
</g>
<g>
</g>
<g>
</g>
</svg>
