<?xml version="1.0" encoding="iso-8859-1"?>
<!-- Generator: Adobe Illustrator 19.0.0, SVG Export Plug-In . SVG Version: 6.00 Build 0)  -->
<svg version="1.1" id="Capa_1" xmlns="http://www.w3.org/2000/svg" xmlns:xlink="http://www.w3.org/1999/xlink" x="0px" y="0px"
	 viewBox="0 0 512 512" style="enable-background:new 0 0 512 512;" xml:space="preserve">
<path style="fill:#87D2F3;" d="M410.667,161.707l48.96-49.067L399.36,52.373l-49.067,48.96c-15.659-9.577-32.692-16.7-50.507-21.12
	c-0.373-0.096-0.736-0.224-1.12-0.32V10.667h-85.333v69.227c-0.384,0.096-0.747,0.224-1.12,0.32
	c-17.815,4.42-34.848,11.543-50.507,21.12l-49.067-48.96L52.373,112.64l48.96,49.067c-9.582,15.675-16.705,32.726-21.12,50.56
	c-0.096,0.373-0.224,0.736-0.32,1.12H10.667v85.333h69.227c0.096,0.384,0.224,0.747,0.32,1.12
	c4.425,17.797,11.548,34.811,21.12,50.453l-48.96,48.96l60.267,60.373l49.067-48.96c57.899,35.327,130.688,35.327,188.587,0
	c24.633-15.044,45.329-35.74,60.373-60.373C445.994,292.394,445.994,219.606,410.667,161.707z"/>
<circle style="fill:#FFFFFF;" cx="256" cy="256" r="96"/>
<circle style="fill:#87D2F3;" cx="352" cy="352" r="42.667"/>
<path style="fill:#FFFFFF;" d="M501.333,320v64H453.76c-1.929,5.953-4.356,11.733-7.253,17.28l33.707,33.707l-45.227,45.227
	l-33.707-33.707c-5.547,2.898-11.327,5.324-17.28,7.253v47.573h-64V453.76c-5.953-1.929-11.733-4.356-17.28-7.253l-33.707,33.707
	l-45.227-45.227l33.707-33.707c-2.898-5.547-5.324-11.327-7.253-17.28h-47.573v-64h47.573c1.929-5.953,4.356-11.733,7.253-17.28
	l-33.707-33.707l45.227-45.227l33.707,33.707c5.547-2.898,11.327-5.324,17.28-7.253v-47.573h64v47.573
	c5.953,1.929,11.733,4.356,17.28,7.253l33.707-33.707l45.227,45.227l-33.707,33.707c2.898,5.547,5.324,11.327,7.253,17.28H501.333z
	 M394.667,352c0-23.564-19.102-42.667-42.667-42.667c-23.564,0-42.667,19.103-42.667,42.667s19.103,42.667,42.667,42.667
	C375.564,394.667,394.667,375.564,394.667,352z"/>
<g>
	<path style="fill:#2170A6;" d="M112.693,444.565l-45.259-45.259l41.451-41.44c3.486-3.485,4.129-8.905,1.557-13.109
		c-9.206-15.047-16.004-31.441-20.149-48.587c-1.153-4.792-5.439-8.17-10.368-8.171H21.333v-64h58.592
		c4.925,0,9.211-3.372,10.368-8.16c4.148-17.149,10.946-33.545,20.149-48.597c2.566-4.202,1.923-9.615-1.557-13.099l-41.451-41.451
		l45.259-45.259l41.451,41.451c3.485,3.486,8.905,4.129,13.109,1.557c15.045-9.211,31.439-16.01,48.587-20.149
		c4.788-1.157,8.16-5.443,8.16-10.368V21.333h64v58.592c0,4.925,3.372,9.211,8.16,10.368c17.148,4.139,33.542,10.938,48.587,20.149
		c4.205,2.572,9.624,1.928,13.109-1.557l41.451-41.451l45.259,45.259l-41.451,41.451l15.083,15.083l49.003-48.992
		c4.164-4.165,4.164-10.917,0-15.083L406.848,44.8c-4.165-4.164-10.917-4.164-15.083,0L348.576,88
		c-12.43-6.878-25.594-12.338-39.243-16.277V10.667C309.333,4.776,304.558,0,298.667,0h-85.333c-5.891,0-10.667,4.776-10.667,10.667
		v61.056c-13.649,3.939-26.812,9.399-39.243,16.277l-43.189-43.2c-4.165-4.164-10.917-4.164-15.083,0L44.8,105.152
		c-4.164,4.165-4.164,10.917,0,15.083L88,163.424c-6.876,12.431-12.336,25.594-16.277,39.243H10.667
		C4.776,202.667,0,207.442,0,213.333v85.333c0,5.891,4.776,10.667,10.667,10.667h61.056c3.94,13.652,9.4,26.819,16.277,39.253
		l-43.2,43.179c-4.164,4.165-4.164,10.917,0,15.083l60.352,60.352c4.165,4.164,10.917,4.164,15.083,0l48.992-48.992l-15.083-15.083
		L112.693,444.565z"/>
	<path style="fill:#2170A6;" d="M256,170.667v-21.333C197.117,149.398,149.398,197.116,149.333,256h21.333
		C170.72,208.894,208.894,170.72,256,170.667z"/>
	<path style="fill:#2170A6;" d="M501.333,309.333h-40.085c-0.587-1.483-1.205-2.944-1.856-4.416l28.363-28.363
		c4.164-4.165,4.164-10.917,0-15.083l-45.227-45.227c-4.231-4.001-10.851-4.001-15.083,0l-28.363,28.363
		c-1.472-0.647-2.944-1.266-4.416-1.856v-40.085c0-5.891-4.776-10.667-10.667-10.667h-64c-5.891,0-10.667,4.776-10.667,10.667
		v40.085c-1.472,0.583-2.944,1.202-4.416,1.856l-28.363-28.363c-4.165-4.164-10.917-4.164-15.083,0l-45.227,45.227
		c-4.164,4.165-4.164,10.917,0,15.083l28.363,28.363c-0.651,1.472-1.269,2.933-1.856,4.416h-40.085
		c-5.891,0-10.667,4.776-10.667,10.667v64c0,5.891,4.776,10.667,10.667,10.667h40.085c0.587,1.483,1.205,2.944,1.856,4.416
		l-28.363,28.363c-4.164,4.165-4.164,10.917,0,15.083l45.227,45.227c4.165,4.164,10.917,4.164,15.083,0l28.363-28.363
		c1.472,0.661,2.944,1.28,4.416,1.856v40.085c0,5.891,4.776,10.667,10.667,10.667h64c5.891,0,10.667-4.776,10.667-10.667v-40.085
		c1.472-0.576,2.944-1.195,4.416-1.856l28.363,28.363c4.165,4.164,10.917,4.164,15.083,0l45.227-45.227
		c4.164-4.165,4.164-10.917,0-15.083l-28.363-28.363c0.651-1.472,1.269-2.933,1.856-4.416h40.085
		c5.891,0,10.667-4.776,10.667-10.667v-64C512,314.109,507.224,309.333,501.333,309.333L501.333,309.333z M490.667,373.333H453.76
		c-4.631-0.001-8.733,2.985-10.155,7.392c-1.748,5.387-3.946,10.618-6.571,15.637c-2.142,4.13-1.361,9.171,1.931,12.459
		l26.165,26.165l-30.144,30.133l-26.165-26.155c-3.288-3.283-8.323-4.06-12.448-1.92c-5.019,2.622-10.25,4.816-15.637,6.56
		c-4.411,1.418-7.402,5.521-7.403,10.155v36.907h-42.667V453.76c0-4.633-2.991-8.737-7.403-10.155
		c-5.387-1.744-10.618-3.938-15.637-6.56c-4.125-2.14-9.16-1.363-12.448,1.92l-26.165,26.155l-30.144-30.133l26.165-26.165
		c3.292-3.288,4.073-8.329,1.931-12.459c-2.625-5.019-4.823-10.25-6.571-15.637c-1.422-4.407-5.524-7.393-10.155-7.392h-36.907
		v-42.667h36.907c4.631,0.001,8.733-2.985,10.155-7.392c1.748-5.387,3.946-10.618,6.571-15.637c2.142-4.13,1.361-9.171-1.931-12.459
		l-26.165-26.165l30.144-30.144l26.165,26.165c3.29,3.288,8.331,4.065,12.459,1.92c5.018-2.617,10.245-4.811,15.627-6.56
		c4.411-1.418,7.403-5.521,7.403-10.155v-36.907h42.667v36.907c0,4.633,2.992,8.737,7.403,10.155
		c5.382,1.749,10.609,3.943,15.627,6.56c4.127,2.145,9.169,1.368,12.459-1.92l26.165-26.165l30.144,30.144l-26.165,26.165
		c-3.292,3.288-4.073,8.329-1.931,12.459c2.625,5.019,4.823,10.25,6.571,15.637c1.422,4.407,5.524,7.393,10.155,7.392h36.907
		L490.667,373.333z"/>
	<path style="fill:#2170A6;" d="M352,298.667c-29.455,0-53.333,23.878-53.333,53.333s23.878,53.333,53.333,53.333
		c29.455,0,53.333-23.878,53.333-53.333C405.298,322.559,381.441,298.702,352,298.667z M352,384c-17.673,0-32-14.327-32-32
		c0-17.673,14.327-32,32-32c17.673,0,32,14.327,32,32C384,369.673,369.673,384,352,384z"/>
</g>
<g>
</g>
<g>
</g>
<g>
</g>
<g>
</g>
<g>
</g>
<g>
</g>
<g>
</g>
<g>
</g>
<g>
</g>
<g>
</g>
<g>
</g>
<g>
</g>
<g>
</g>
<g>
</g>
<g>
</g>
</svg>
