<?xml version="1.0" encoding="iso-8859-1"?>
<!-- Generator: Adobe Illustrator 19.0.0, SVG Export Plug-In . SVG Version: 6.00 Build 0)  -->
<svg version="1.1" id="Layer_1" xmlns="http://www.w3.org/2000/svg" xmlns:xlink="http://www.w3.org/1999/xlink" x="0px" y="0px"
	 viewBox="0 0 511.982 511.982" style="enable-background:new 0 0 511.982 511.982;" xml:space="preserve">
<circle style="fill:#FAD55C;" cx="255.991" cy="255.991" r="255.991"/>
<path style="fill:#E3C04D;" d="M509.233,293.742c-16.438,111.163-104.328,199.053-215.491,215.473L148.254,363.727l215.491-215.473
	L509.233,293.742z"/>
<path style="fill:#FF8C8A;" d="M103.631,255.991c0-84.133,68.226-152.359,152.378-152.359c84.133,0,152.359,68.226,152.359,152.359
	c0,84.151-68.226,152.378-152.359,152.378C171.858,408.369,103.631,340.142,103.631,255.991z"/>
<path style="fill:#F3F3F3;" d="M282.361,182.872c-4.545,23.768-12.003,128.536-26.242,128.536
	c-13.158,0-26.279-127.436-26.481-128.536C226.633,142.665,285.367,141.547,282.361,182.872z M256.009,323.264
	c10.519,0,19.04,8.54,19.04,19.059c0,10.519-8.521,19.059-19.04,19.059c-10.537,0-19.059-8.54-19.059-19.059
	C236.951,331.804,245.472,323.264,256.009,323.264z"/>
<g>
</g>
<g>
</g>
<g>
</g>
<g>
</g>
<g>
</g>
<g>
</g>
<g>
</g>
<g>
</g>
<g>
</g>
<g>
</g>
<g>
</g>
<g>
</g>
<g>
</g>
<g>
</g>
<g>
</g>
</svg>
