<?xml version="1.0" encoding="iso-8859-1"?>
<!-- Generator: Adobe Illustrator 19.0.0, SVG Export Plug-In . SVG Version: 6.00 Build 0)  -->
<svg version="1.1" id="Layer_1" xmlns="http://www.w3.org/2000/svg" xmlns:xlink="http://www.w3.org/1999/xlink" x="0px" y="0px"
	 viewBox="0 0 512.006 512.006" style="enable-background:new 0 0 512.006 512.006;" xml:space="preserve">
<g>
	<g>
		<path d="M491.867,456.566c-4.285-6.006-10.412-8.554-17.003-11.269c-11.359-4.679-24.522-4.657-34.378,2.793
			c-6.547-6.932-15.901-9.507-25.906-9.955c-7.121-0.318-13.192,1.356-19.767,3.979c-2.564,1.023-5.127,1.897-7.275,3.684
			c-0.633,0.526-1.19,1.159-1.727,1.818c-0.102-0.438-0.203-0.857-0.318-1.217c-0.973-3.038-2.112-6.401-3.87-9.088
			c-3.053-4.667-8.234-6.781-13.498-7.845c-5.866-1.185-11.65-0.776-17.438,0.702c-1.493,0.381-4.348,0.923-6.512,1.758
			c-0.008-0.981-0.116-1.995-0.133-2.544c-0.177-5.548-1.454-12.573-4.666-17.212c-3.408-4.923-9.033-7.899-14.612-9.648
			c-7.186-2.252-16.623-2.788-24.604-0.283c0.055-3.409-0.297-6.802-1.344-10.091c-1.714-5.381-5.533-11.367-9.607-15.594
			c0.473-4.153-0.84-9.34-1.317-12.519c-1.023-6.819-1.551-13.787-2.677-20.612c-2.5-15.146-3.159-30.529-6.095-45.68
			c-3.097-15.987-4.626-32.374-6.913-48.467c-1.833-12.898-2.336-25.598-5.524-38.137c1.091-0.482,2.181-0.951,3.271-1.395
			c16.298-6.659,34.646-10.405,52.178-6.787c4.245,0.876,8.219,2.102,12.173,3.847c3.334,1.472,6.937,3.353,10.69,2.675
			c2.979-0.54,4.47-2.712,6.522-4.654c3.083-2.917,7.074-4.962,10.455-7.541c16.057-12.25,36.343-19.65,56.305-22.09
			c10.063-1.23,20.617-2.291,30.758-2.12c5.346,0.089,10.71,0.666,15.984,1.518c3.725,0.603,7.775,1.832,11.56,1.559
			c3.496,1.588,8.82-1.201,7.527-6.084c-1.4-5.29-5.729-9.212-9.502-12.932c-4.253-4.194-7.472-8.39-12.269-11.923
			c-10.528-7.753-20.791-16.37-30.887-24.802c-10.131-8.461-21.422-15.423-31.822-23.521c-10.076-7.847-21.514-13.213-32.792-19.102
			c-5.127-2.677-10.107-5.479-15.595-7.363c-6.042-2.075-11.417-5.265-17.308-7.659c-12.015-4.88-24.367-8.297-36.93-11.34
			c-12.328-2.985-24.64-5.421-37.279-6.664c-6.186-0.609-12.466-0.598-18.728-0.218c-0.122-0.318-0.283-0.615-0.479-0.883
			c-0.57-4.991-1.201-9.944-1.657-14.975c-0.487-5.378-1.091-11.056-4.003-15.708c-2.102-3.359-4.358-5.323-8.425-5.387
			c-2.443-0.039-4.682,0.571-7.033,1.111c-3.016,0.693-5.927,0.713-8.956,1.098c-3.602,0.457-7.959,2.217-10.075,5.343
			c-2.295,3.391-1.373,8.005-0.97,11.776c0.593,5.547,1.272,10.886,2.481,16.364c0.561,2.541,1.201,5.869,2.824,8.209
			c-6.313,2.371-12.496,5.148-18.554,7.601c-2.91,1.179-5.305,2.894-7.987,4.479c-3.048,1.802-6.393,2.975-9.345,4.959
			c-1.049,0.706-2.085,1.417-3.121,2.124c-7.085,3.715-14.144,7.454-20.705,12.087c-8.717,6.157-17.592,12.465-25.929,19.082
			c-17.342,13.767-33.92,29.275-48.476,45.953c-7.447,8.532-14.943,16.872-22,25.753c-6.563,8.26-13.731,16.026-19.445,24.922
			c-3.671,5.715-7.33,11.565-10.559,17.542c-1.396,2.584-3.117,4.899-4.606,7.419c-1.745,2.956-2.619,6.226-4.025,9.335
			c-2.356,5.216-3.95,10.398-6.051,15.716c-1.937,4.904-4.657,10.841-3.7,16.123c0.492,2.71,4.217,4.932,6.816,3.87
			c2.653-1.084,4.172-2.717,6.041-4.803c2.977-3.32,6.634-5.553,10.447-7.863c7.453-4.513,15.814-7.945,23.825-11.341
			c16.833-7.136,36.548-7.151,54.152-3.26c4.3,0.951,8.074,2.974,12.07,4.738c3.572,1.576,6.076,4.066,9.415,5.92
			c7.548,4.193,11.165-4.152,16.102-8.009c6.461-5.05,13.505-9.425,21.264-12.165c3.963-1.4,7.98-2.798,12.057-3.833
			c4.435-1.126,8.493-0.859,12.996-1.206c4.47-0.345,8.871-1.032,13.381-0.677c4.464,0.351,9.402,1.672,13.731,2.872
			c3.47,0.961,7.223,2.526,10.433,4.201c-0.588-0.264,1.327,1.082,1.648,1.243c1.491,0.747,3.476,0.991,5.115,0.549
			c2.416-0.653,4.108-2.777,5.899-4.488c0.151,2.046,0.375,4.105,0.517,6.201c0.45,6.633,1.098,13.303,1.7,19.899
			c0.53,5.801,1.745,11.713,2.77,17.451c1.237,6.919,1.057,13.861,1.998,20.751c0.863,6.323,1.179,12.733,1.488,19.101
			c0.147,3.041,0.755,5.976,0.7,9.028c-0.057,3.121-0.325,6.209,0.097,9.315c1.464,10.79,1.79,21.79,3.052,32.685
			c-15.437,1.673-30.274,6.943-43.315,15.444c-6.105,3.979-12.138,9.154-17.482,14.1c-3.339,3.09-6.639,6.366-9.635,9.87
			c-1.666-1.423-3.008-3.421-4.911-4.636c-2.384-1.523-4.948-2.848-7.551-3.944c-6.09-2.563-13.173-2.604-19.665-1.683
			c-12.446,1.766-23.991,10.624-29.622,21.639c-2.629,5.143-4.294,10.448-5.127,16.155c-0.233,1.599-0.386,3.208-0.598,4.81
			c-0.099,0.756-1.058,2.959-0.332,2.756c-2.243,1.028-7.717-0.107-9.82-0.185c-12.394-0.455-26.355-0.746-36.806,6.984
			c-3.804,2.813-8.493,7.195-10.346,11.591c-0.926,2.197-0.538,4.318-0.989,6.553c-0.125,0.616-0.179,1.025-0.195,1.305
			c-0.098,0.019-0.234,0.081-0.419,0.209c-0.983,0.684-3.865,1.136-5.085,1.427c-9.809,2.341-23.287,7.511-26.402,18.594
			c-3.266,11.621,12.729,15.906,20.959,17.256c6.568,1.077,13.788,1.121,20.445,1.154c7.488,0.038,15.055,0.498,22.532,0.096
			c6.996-0.376,13.8-1.249,20.827-1.208c7.179,0.042,14.534-0.312,21.685-0.9c14.38-1.181,28.582-0.576,42.978-0.906
			c6.469-0.148,13.002-0.609,19.456-1.106c7.201-0.554,14.318,0.266,21.514-0.535c6.429-0.715,13.094-0.671,19.559-0.937
			c8.122-0.336,16.336,0.028,24.467,0.054c14.114,0.048,28.217-0.104,42.285,0.104c13.459,0.2,26.942-1.459,40.4-1.477
			c14.908-0.019,29.834-2.336,44.673-2.115c14.341,0.214,28.621,1.238,42.959,1.422c8.828,0.113,17.842,1.277,26.651,0.471
			c6.698-0.613,13.505,0.141,20.157-0.635c6.678-0.779,12.821,0.086,18.146-4.822c4.558-4.201,6.763-10.328,7.385-16.383
			C497.337,468.989,495.541,461.724,491.867,456.566z M246.983,53.357c12.363,0.008,24.432,1.44,36.574,3.735
			c6.407,1.21,12.717,3.282,19.101,4.681c5.434,1.19,11.045,3.036,16.199,5.099c11.262,4.508,22.713,8.668,33.798,13.61
			c5.251,2.341,10.32,5.42,15.306,8.26c5.581,3.18,11.724,5.429,17.241,8.732c5.319,3.184,9.934,7.502,14.846,11.247
			c4.421,3.37,9.135,6.404,13.63,9.696c12.42,9.093,24.169,19.037,36.308,28.52c2.166,1.692,3.754,3.848,5.806,5.581
			c2.455,2.072,4.636,3.211,6.664,5.859c1.624,2.121,3.197,4.099,4.951,6.049c-0.493-0.12-0.983-0.224-1.464-0.299
			c-4.296-0.674-8.649-1.15-12.99-1.423c-9.191-0.579-18.568,0.453-27.728,1.229c-17.833,1.51-35.483,5.563-51.49,13.782
			c-7.899,4.056-14.797,9.061-22.136,13.97c-1.698,1.136-3.392,2.239-4.993,3.511c-0.925,0.735-2.334,2.705-3.475,3.518
			c-0.126-4.148-1.581-11.735-1.771-12.352c-2.772-8.99-6.314-17.249-9.794-25.97c-1.609-4.031-3.896-7.909-6.026-11.687
			c-2.2-3.901-5.343-7.189-7.33-11.187c-3.836-7.721-10.985-14.375-16.253-21.185c-6.011-7.77-13.193-14.322-19.333-21.924
			c-4.664-5.776-9.149-11.721-14.784-16.623c-6.917-6.016-13.724-12.28-21.012-17.867c-2.768-2.122-5.493-4.416-8.321-6.473
			C241.376,53.374,244.214,53.355,246.983,53.357z M210.859,16.685c3.399-0.708,6.898-0.716,10.32-1.52
			c5.343-1.254,7.927-0.699,9.424,4.99c1.228,4.666,0.95,9.664,1.238,14.422c0.216,3.573,0.881,7.089,1.229,10.633
			c-3.358,0.351-6.697,0.774-9.998,1.244c-4.557,0.65-9.045,1.836-13.471,3.302c0.479-4.441-1.861-10.451-2.215-13.776
			c-0.362-3.397-0.427-6.84-0.999-10.228C205.631,21.297,205.708,17.76,210.859,16.685z M124.34,226.864
			c-0.996,4.225-1.417,8.614-1.325,12.987c-0.286-0.185-0.57-0.37-0.876-0.53c-3.311-1.721-7.041-2.886-10.514-4.253
			c-8.9-3.505-19.997-4.705-29.528-4.724c-10.01-0.02-19.583,1.405-29.182,4.176c-8.902,2.569-17.643,6.677-25.955,10.744
			c-3.818,1.868-7.629,3.63-11.503,5.328c1.742-4.319,3.011-8.614,4.878-12.89c4.425-10.135,10.053-19.433,15.667-28.983
			c2.509-4.266,5.51-8.102,8.078-12.3c2.483-4.061,5.854-7.268,8.691-11.071c6.404-8.584,13.001-16.929,20.042-24.975
			c6.489-7.416,12.886-14.963,19.704-22.103c7.55-7.907,15.96-15.148,24.146-22.389c15.297-13.528,31.889-27.318,50.159-36.571
			c5.442-2.756,10.736-6.09,16.005-9.186c4.89-2.873,10.029-4.874,15.101-7.35c1.697-0.829,3.443-1.537,5.213-2.187
			c-6.261,6.549-11.738,13.864-17.034,21.385c-4.007,5.69-7.636,11.664-11.379,17.517c-3.719,5.816-7.148,11.491-10.481,17.536
			c-6.49,11.776-11.058,24.551-16.667,36.693c-6.638,14.372-11.708,29.117-16.126,44.264
			C128.672,207.52,126.621,217.2,124.34,226.864z M224.227,179.943c-0.44,7.962-0.606,16.064-0.473,24.038
			c0.096,5.717-0.515,12.387,0.203,18.473c-0.476-0.182-0.944-0.369-1.386-0.576c-7.367-3.462-16.695-5.771-24.841-6.094
			c-4.516-0.179-8.814,0.547-13.281,0.766c-4.176,0.205-8.013,0.028-12.163,0.866c-8.254,1.666-16.732,4.684-24.257,8.458
			c-6.714,3.368-14.706,8.093-19.562,13.938c-0.348,0.42-0.682,0.861-1.014,1.297c0.84-6.142,1.544-12.218,3.086-18.369
			c2.656-10.589,5.249-21.163,8.263-31.658c4.827-16.804,12.236-33.81,19.911-49.451c7.585-15.454,14-31.147,24.545-44.897
			c2.471-3.222,4.128-7.058,6.43-10.427c2.919-4.27,6.114-8.346,9.242-12.462c2.949-3.881,5.888-7.068,9.365-10.389
			c1.512-1.446,2.531-3.306,4.045-4.743c0.654-0.62,1.388-1.16,2.132-1.687c0.536-0.16,1.067-0.331,1.6-0.496
			c0.125,1.345,0.364,3.161,0.448,3.573c0.855,4.168,1.839,8.216,2.515,12.432c1.117,6.966,2.821,14.038,3.331,21.017
			c0.488,6.67,1.235,13.343,1.886,20.02c0.425,4.368,0.301,8.625,0.415,12.997c0.101,3.842,0.956,7.509,0.893,11.384
			C225.334,152.015,225.003,165.928,224.227,179.943z M235.317,217.186c-2.038,1.395-5.227,3.358-7.064,5.451
			c0.746-6.132,0.101-12.849,0.224-18.655c0.181-8.577,0.448-17.391,1.264-25.926c0.379-3.964,0.427-7.714,0.406-11.699
			c-0.018-3.586,0.833-7.019,0.931-10.588c0.21-7.66,0.95-16.198-0.062-23.777c-1.083-8.113-0.72-16.413-1.456-24.594
			c-0.595-6.617-1.308-13.236-2.272-19.806c-1.132-7.723-2.208-15.615-3.786-23.288c-0.58-2.819-1.339-5.581-1.858-8.413
			c-0.062-0.338-0.123-0.707-0.189-1.086c1.695-0.263,3.408-0.469,5.129-0.647c1.21,0.933,2.705,1.603,3.977,2.239
			c3.161,1.583,5.539,3.837,8.357,5.929c7.113,5.281,13.461,11.094,20.142,16.883c5.821,5.045,11.554,10.124,16.148,16.317
			c5.602,7.551,12.686,13.663,18.596,20.953c3.004,3.708,5.747,7.621,8.765,11.315c2.777,3.398,6.027,6.57,8.488,10.21
			c2.39,3.536,4.577,7.306,6.956,10.897c2.534,3.827,5.066,8.205,6.919,12.408c3.643,8.264,7.43,16.312,10.304,24.887
			c1.039,3.101,2.179,6.19,2.847,9.286c0.128,0.594,0.467,1.418,0.86,2.331c-0.038-0.018-0.082-0.042-0.114-0.054
			c-1.769-0.725-3.503-1.552-5.317-2.165c-15.948-5.383-34.993-4.447-51.057-0.389c-8.51,2.15-16.966,5.592-24.773,9.579
			C250.157,208.632,242.3,212.403,235.317,217.186z M245.098,257.215c-1.284-6.761-2.444-13.819-3.189-20.675
			c-0.385-3.54-0.736-6.805-1.501-10.065c2.13-1.598,4.304-3.129,6.549-4.602c4.491-2.946,9.344-5.724,14.292-8.184
			c-0.369,4.323,0.165,8.629,0.603,13.098c0.708,7.235,0.957,14.544,1.736,21.797c1.742,16.224,3.988,32.679,6.801,48.779
			c1.495,8.554,2.886,17.185,4.103,25.782c0.967,6.828,1.056,13.743,2.056,20.613c1.008,6.919,1.828,13.915,2.905,20.832
			c0.223,1.43,0.342,3.168,0.503,4.993c-6.955-3.711-14.831-5.2-22.789-5.289c-0.048-4.752-1.205-9.956-1.714-14.468
			c-0.679-6.043-0.796-12.109-1.705-18.117c-0.502-3.323-0.204-6.519-0.27-9.865c-0.054-2.736-0.657-5.379-0.835-8.102
			c-0.425-6.441-0.725-12.972-1.71-19.364C249.022,281.999,247.448,269.587,245.098,257.215z M480.76,484.155
			c-2.149,1.117-4.908,0.306-7.277,0.57c-2.339,0.262-4.44,0.673-6.797,0.662c-5.903-0.028-11.631,0.288-17.507,0.643
			c-6.149,0.371-12.402-0.255-18.55-0.47c-6.523-0.228-13.073,0.097-19.588-0.2c-12.596-0.575-25.297-1.976-37.882-0.825
			c-13.432,1.228-26.904,1.419-40.386,1.583c-11.526,0.14-23.062,1.186-34.597,1.467c-5.527,0.135-10.959-0.131-16.493,0.097
			c-6.47,0.267-13.021-0.137-19.501-0.108c-13.227,0.06-26.427-0.048-39.62,0.795c-11.939,0.762-23.947,0.408-35.852,1.398
			c-12.574,1.045-25.129,1.107-37.742,1.161c-11.635,0.05-23.318,0.971-34.91,1.892c-6.078,0.483-12.14,0.298-18.219,0.669
			c-6.441,0.394-12.708,1.419-19.185,1.414c-12.61-0.01-26.413,1.591-38.678-1.822c-1.783-0.496-3.676-0.886-5.378-1.615
			c-3.578-1.531-3.773-3.081-1.296-5.683c3.658-3.842,9.048-6.936,14.28-7.956c4.007-0.781,9.136-1.288,12.573-3.686
			c1.927-1.345,3.344-3.313,3.904-5.603c0.504-2.066-0.31-4.544,0.351-6.489c0.741-2.18,4.221-4.91,5.85-6.353
			c1.984-1.759,4.967-3.5,7.507-4.352c2.882-0.966,6.743-0.855,9.753-1.306c3.608-0.541,7.054-0.416,10.685-0.317
			c5.525,0.152,11.745,0.902,17.135-0.72c5.446-1.639,6.236-5.973,6.718-11.065c1.344-14.187,6.159-25.808,19.752-32.259
			c5.723-2.716,14.976-3.658,20.979-1.5c4.291,1.544,7.709,4.652,11.54,6.841c-0.147,0.225-0.307,0.444-0.45,0.672
			c-8.718,13.743-18.842,30.107-17.706,47.087c0.126,1.875,2.897,2.447,3.406,0.46c4.103-16.02,13.197-31.362,22.352-44.961
			c4.68-6.952,11.721-13.163,18.326-18.238c3.151-2.421,5.996-5.251,9.228-7.56c3.574-2.554,7.64-4.391,11.515-6.422
			c13.595-7.129,32.834-11.938,48.049-7.704c6.865,1.91,14.698,7.057,17.867,13.539c1.561,3.193,3.676,6.553,3.874,10.18
			c0.262,4.799-0.811,9.805-1.819,14.451c-1.141,5.26,5.909,10.764,9.939,5.786c1.654-2.043,2.72-3.816,5.098-5.054
			c2.802-1.458,5.873-2.429,9.027-2.715c5.398-0.488,12.225,0.961,16.819,3.954c4.973,3.24,6.185,9.262,6.639,14.89
			c0.313,3.872-1.058,9.198,2.686,11.803c3.869,2.691,7.119-0.764,10.681-2.151c5.24-2.042,11.158-3.301,16.718-2.117
			c2.365,0.503,5.006,1.103,7.048,2.456c2.956,1.958,3.767,5.398,4.703,8.623c1.088,3.753,1.701,8.354,4.788,11.065
			c1.534,1.346,3.877,1.905,5.712,0.737c3.341-2.127,5.12-5.839,8.677-7.591c5.034-2.481,10.826-4.34,16.443-4.344
			c4.699-0.004,9.33,0.708,13.778,2.233c4.967,1.702,7.665,4.925,11.487,8.237c1.68,1.454,3.851,1.386,5.454,0.459
			c0.951-0.135,1.911-0.554,2.794-1.352c8.715-7.868,21.354-4.202,30.748,0.46c4.875,2.419,7.825,6.045,8.872,11.389
			C485.922,473.62,485.482,481.699,480.76,484.155z"/>
	</g>
</g>
<g>
	<g>
		<path d="M471.819,259.849c-5.897-8.679-13.51-16.545-24.451-18.014c-11.307-1.52-22.862-1.188-32.523,5.791
			c-4.64,3.352-9.51,8.516-11.786,13.809c-1.097,2.551-2.197,5.259-3.082,7.922c-0.097,0.219-0.201,0.439-0.294,0.657
			c-4.393,10.266-4.275,24.859,1.515,34.58c6.097,10.237,16.011,16.717,27.544,19.135c11.011,2.309,25.617,4.155,35.677-2.153
			c3.767-2.361,6.432-7.83,8-11.835c2.059-5.26,4.789-9.853,5.337-15.582C478.888,282.317,478.706,269.986,471.819,259.849z
			 M464.681,308.972c-1.885,3.603-3.637,6.641-7.662,8.031c-5.364,1.853-12.667,1.716-18.175,0.9
			c-10.026-1.484-19.568-2.972-26.918-10.614c-8.532-8.872-9.126-19.38-7.167-30.971c0.877-5.193,3.93-9.033,6.934-13.134
			c3.105-4.238,6.351-8.396,11.175-10.755c5.073-2.48,10.023-3.812,15.757-3.287c2.745,0.252,5.972,0.672,8.806,0.306
			c4.821,1.461,9.219,4.079,13.143,7.799c6.137,5.816,9.517,14.943,10.219,23.199C471.668,290.697,469.411,299.935,464.681,308.972z
			"/>
	</g>
</g>
<g>
	<g>
		<path d="M433.032,219.043c-1.647-5.354-10.261-2.876-8.336,2.298c0.936,2.514,1.391,4.794,1.792,7.426
			c0.321,2.101,1.403,4.562,3.354,5.629c0.708,0.387,1.671,0.469,2.373,0c2.47-1.653,1.759-4.054,1.989-6.595
			C434.47,224.857,433.895,221.844,433.032,219.043z"/>
	</g>
</g>
<g>
	<g>
		<path d="M452.605,346.563c-0.06-1.575-0.577-2.614-0.938-4.086c-0.627-2.563-0.221-5.206-1.244-7.741
			c-1.146-2.843-4.685-2.865-5.83,0c-1.015,2.541-1.404,5.983-1.229,8.73c0.106,1.666,0.483,3.146,0.473,4.84
			c-0.034,5.646,8.839,5.655,8.774,0C452.604,347.726,452.628,347.141,452.605,346.563z"/>
	</g>
</g>
<g>
	<g>
		<path d="M388.973,297.955c-1.698-1.399-3.808-2.19-6.036-1.68c-1.581,0.362-2.953,1.094-4.576,1.398
			c-0.754,0.141-2.369,0.079-3.49,0.35c-2.168,0.522-3.418,2.018-4.202,4.042c-0.823,2.125,0.733,4.686,2.686,5.471
			c1.549,0.623,2.972,0.398,4.178-0.381c0.403-0.008,0.798-0.043,1.205-0.089c1.096-0.123,2.159-0.386,3.207-0.728
			c1.087-0.356,2.034-0.843,3.029-1.381c1.078-0.584,2.282-0.83,3.295-1.549C389.918,302.239,390.843,299.496,388.973,297.955z"/>
	</g>
</g>
<g>
	<g>
		<path d="M500.311,272.12c-0.174,0.015-0.346,0.03-0.518,0.044c-0.267,0.023-0.535,0.07-0.798,0.138
			c-2.878,0.537-5.624,0.833-8.331,2.126c-0.082,0.039-0.825,0.426-1.1,0.613c-0.354,0.018-1.134,0.122-1.253,0.137
			c-1.43,0.191-2.174,1.186-3.426,1.555c-2.447,0.721-3.1,4.306-0.731,5.592c1.346,0.733,2.306,0.64,3.768,0.521
			c1.349-0.111,2.71,0.169,4.11-0.19c1.56-0.399,3.063-0.941,4.68-1.13c1.642-0.191,3.187-0.011,4.796-0.559
			C506.03,279.432,505.661,271.661,500.311,272.12z"/>
	</g>
</g>
<g>
	<g>
		<path d="M480.856,235.277c-1.05-3.183-4.516-3.846-6.985-1.844c-0.668,0.542-0.928,1.23-1.378,1.907
			c0.377-0.565-0.498,0.442-0.537,0.477c-0.887,0.843-1.719,1.663-2.417,2.686c-1.415,2.071-2.93,4.189-3.096,6.76
			c-0.186,2.894,3.676,4.238,5.59,2.315c0.839-0.843,1.781-1.583,2.631-2.417c0.411-0.404,0.788-0.835,1.159-1.276
			c0.477-0.566,0.201-0.253,0.671-0.639C478.9,241.264,482.049,238.89,480.856,235.277z"/>
	</g>
</g>
<g>
	<g>
		<path d="M411.948,323.827c-2.892-0.059-5.027,2.107-6.721,4.204c-1.94,2.403-4.49,4.885-5.493,7.819
			c-1.152,3.368,3.206,6.845,6.199,4.764c2.458-1.708,3.796-4.469,5.386-6.948c1.238-1.93,2.761-3.807,3.592-5.949
			C415.658,325.789,413.768,323.863,411.948,323.827z"/>
	</g>
</g>
<g>
	<g>
		<path d="M398.482,252.325c-1.999-3.559-5.629-5.924-9.301-7.717c-0.601-0.823-1.492-1.406-2.516-1.623
			c-2.131-0.449-4.028,0.33-5.229,2.127l-0.294,0.44c-1.316,1.973-0.528,5.424,1.69,6.446c2.356,1.086,4.747,2.088,7.075,3.233
			c2.265,1.113,4.402,2.141,6.908,1.19C398.497,255.785,399.43,254.012,398.482,252.325z"/>
	</g>
</g>
<g>
	<g>
		<path d="M488.329,315.525c-1.155-0.93-2.286-1.55-3.672-2.081c-0.362-0.138-0.739-0.24-1.097-0.384
			c-0.283-0.092-0.289-0.101-0.019-0.028c-0.156-0.088-0.313-0.174-0.473-0.255c-1.047-0.586-1.259-0.56-2.148-0.956
			c-0.594-0.265-0.74-0.343-1.101-0.51c-0.275-0.127-1.496-0.864-0.819-0.376c-1.362-0.983-3.789-0.015-4.07,1.656
			c-0.823,4.879,4.225,8.004,7.875,10.091c1.812,1.035,4.026,0.682,5.523-0.712c0.242-0.224,0.535-0.644,0.712-0.922
			C490.029,319.504,489.836,316.74,488.329,315.525z"/>
	</g>
</g>
<g>
	<g>
		<path d="M455.53,209.042c-1.766,1.473-2.068,3.428-2.877,5.493c-1.056,2.696-2.301,5.28-3.126,8.069
			c-0.801,2.709-1.156,5.496-1.632,8.268c-0.297,1.732-0.747,2.896,0.348,4.469c0.531,0.761,1.873,1.234,2.571,0.332
			c2.724-3.515,3.431-6.354,4.691-10.653c1.312-4.474,3.948-8.547,4.986-13.089C461.181,208.911,457.779,207.167,455.53,209.042z"/>
	</g>
</g>
<g>
	<g>
		<path d="M505.543,248.816c-5.065,0.21-10.117,2.696-14.678,4.787c-3.926,1.8-8.37,3.758-11.617,6.674
			c-0.955,0.858-0.755,2.712,0.423,3.287c3.169,1.547,7.202-0.901,10.249-2.058c4.991-1.896,10.282-4.793,15.623-5.469
			C510.007,255.472,510.311,248.619,505.543,248.816z"/>
	</g>
</g>
<g>
	<g>
		<path d="M476.389,353.118c-0.886-4.425-3.749-8.403-4.954-12.81c-1.033-3.775-2.246-6.732-4.621-9.747
			c-0.609-0.772-2.185-0.769-2.79,0c-2.158,2.74-0.369,7.074,0.215,10.209c0.952,5.107,3.3,9.5,4.54,14.446
			C470.024,360.181,477.379,358.059,476.389,353.118z"/>
	</g>
</g>
<g>
	<g>
		<path d="M431.144,333.738c-0.294-1.473-2.185-2.101-3.393-1.381c-3.91,2.329-5.098,7.999-7.048,11.894
			c-0.939,1.873-1.736,3.845-2.772,5.666c-0.951,1.674-2.182,2.788-2.706,4.685c-1.292,4.667,5.956,6.66,7.246,1.998
			c0.13-0.467,1.715-2.405,2.233-3.421c1.063-2.083,1.951-4.277,2.94-6.398C429.485,342.83,432.025,338.16,431.144,333.738z"/>
	</g>
</g>
<g>
	<g>
		<path d="M398.824,314.725c-1.658-1.427-2.972-1.453-4.966-0.764c-2.75,0.95-5.407,2.12-7.808,3.743
			c-2.417,1.634-5,3.569-7.548,4.945c-2.285,1.233-4.106,1.357-5.636,3.703c-2.287,3.503,3.094,7.776,5.865,4.524
			c0.866-1.015,3.34-1.6,4.53-2.448c1.964-1.4,4.08-2.559,6.045-3.95c3.309-2.345,6.558-3.993,9.517-6.814
			C399.592,316.931,399.662,315.446,398.824,314.725z"/>
	</g>
</g>
<g>
	<g>
		<path d="M388.789,275.234c-1.885-2.304-4.163-3.607-7.092-4.953c-2.169-0.996-4.415-1.783-6.772-2.187
			c-1.898-0.323-4.058-0.016-5.651-1.199c-3.747-2.782-7.829,3.097-4.833,6.264c2.091,2.209,4.671,2.385,7.547,2.626
			c2.848,0.239,5.386,1.009,8.106,1.867c1.949,0.615,4.538,2.053,6.638,1.75c0.502-0.072,2.571-1.15,1.306-0.442
			c0.735-0.411,1.132-0.403,1.832-1.061C390.919,276.911,390.045,275.295,388.789,275.234z"/>
	</g>
</g>
<g>
	<g>
		<path d="M414.221,239.027c-3.009-7.501-4.296-15.659-8.204-22.82c-1.647-3.018-5.829-1.99-6.857,0.896
			c-1.101,3.092,0.872,5.481,2.088,8.205c1.303,2.916,2.136,6.036,3.28,9.011c1.283,3.339,4.326,9.278,8.824,6.841
			C414.018,240.801,414.521,239.773,414.221,239.027z"/>
	</g>
</g>
<g>
	<g>
		<path d="M509.302,303.099c-1.214-0.348-2.295-0.848-3.484-1.332c-1.827-0.744-3.684-0.835-5.552-1.39
			c-1.74-0.517-3.518-1.229-5.239-1.82c-1.58-0.541-4.099-1.201-5.543-2.015c-4.126-2.321-7.787,3.941-3.708,6.343
			c3.105,1.829,7.019,2.638,10.394,3.968c1.555,0.613,2.994,0.969,4.613,1.356c2.248,0.538,4.254,1.671,6.482,2.278
			C512.031,311.79,514.042,304.459,509.302,303.099z"/>
	</g>
</g>
<g>
</g>
<g>
</g>
<g>
</g>
<g>
</g>
<g>
</g>
<g>
</g>
<g>
</g>
<g>
</g>
<g>
</g>
<g>
</g>
<g>
</g>
<g>
</g>
<g>
</g>
<g>
</g>
<g>
</g>
</svg>
