<?xml version="1.0" encoding="iso-8859-1"?>
<!-- Generator: Adobe Illustrator 19.0.0, SVG Export Plug-In . SVG Version: 6.00 Build 0)  -->
<svg version="1.1" id="Layer_1" xmlns="http://www.w3.org/2000/svg" xmlns:xlink="http://www.w3.org/1999/xlink" x="0px" y="0px"
	 viewBox="0 0 512 512" style="enable-background:new 0 0 512 512;" xml:space="preserve">
<g transform="translate(0 -1)">
	<path style="fill:#464F5D;" d="M342.069,513H169.931c-10.973,0-19.862-8.889-19.862-19.862V20.862
		C150.069,9.889,158.958,1,169.931,1h172.138c10.973,0,19.862,8.889,19.862,19.862v472.276C361.931,504.111,353.042,513,342.069,513
		"/>
	<path style="fill:#E64C3C;" d="M308.966,106.931c0,29.255-23.711,52.966-52.966,52.966s-52.966-23.711-52.966-52.966
		S226.745,53.966,256,53.966S308.966,77.676,308.966,106.931"/>
	<path style="fill:#F3D55B;" d="M308.966,257c0,29.255-23.711,52.966-52.966,52.966S203.034,286.255,203.034,257
		s23.711-52.966,52.966-52.966S308.966,227.745,308.966,257"/>
	<path style="fill:#4FBA6F;" d="M308.966,407.069c0,29.255-23.711,52.966-52.966,52.966s-52.966-23.711-52.966-52.966
		c0-29.255,23.711-52.966,52.966-52.966S308.966,377.814,308.966,407.069"/>
	<g>
		<path style="fill:#2F3744;" d="M44.138,53.966c0,29.272,23.693,52.966,52.966,52.966h8.828c24.399,0,44.138,19.738,44.138,44.138
			V53.966H44.138z"/>
		<path style="fill:#2F3744;" d="M44.138,204.034c0,29.272,23.693,52.966,52.966,52.966h8.828c24.399,0,44.138,19.738,44.138,44.138
			v-97.103H44.138z"/>
		<path style="fill:#2F3744;" d="M44.138,354.103c0,29.272,23.693,52.966,52.966,52.966h8.828c24.399,0,44.138,19.738,44.138,44.138
			v-97.103H44.138z"/>
		<path style="fill:#2F3744;" d="M467.862,53.966c0,29.272-23.693,52.966-52.966,52.966h-8.828
			c-24.399,0-44.138,19.738-44.138,44.138V53.966H467.862z"/>
		<path style="fill:#2F3744;" d="M467.862,204.034c0,29.272-23.693,52.966-52.966,52.966h-8.828
			c-24.399,0-44.138,19.738-44.138,44.138v-97.103H467.862z"/>
		<path style="fill:#2F3744;" d="M467.862,354.103c0,29.272-23.693,52.966-52.966,52.966h-8.828
			c-24.399,0-44.138,19.738-44.138,44.138v-97.103H467.862z"/>
	</g>
</g>
<g>
</g>
<g>
</g>
<g>
</g>
<g>
</g>
<g>
</g>
<g>
</g>
<g>
</g>
<g>
</g>
<g>
</g>
<g>
</g>
<g>
</g>
<g>
</g>
<g>
</g>
<g>
</g>
<g>
</g>
</svg>
